<svg width="1200" height="900" viewBox="0 0 1200 900" fill="none" xmlns="http://www.w3.org/2000/svg">
  <rect width="1200" height="900" rx="40" fill="#F4F4F4"/>
  <rect x="62" y="62" width="1076" height="776" rx="28" fill="url(#bg)" stroke="#E0E0E0" stroke-width="4"/>
  <circle cx="600" cy="360" r="220" fill="#FFFFFF" fill-opacity="0.8"/>
  <path d="M448 498C448 443.817 490.817 401 545 401H655C709.183 401 752 443.817 752 498V513.5H448V498Z" fill="#D9D9D9"/>
  <rect x="472" y="332" width="256" height="168" rx="54" fill="#111111" fill-opacity="0.9"/>
  <rect x="518" y="286" width="164" height="100" rx="34" fill="#111111" fill-opacity="0.85"/>
  <rect x="492" y="392" width="216" height="24" rx="12" fill="#FFFFFF" fill-opacity="0.7"/>
  <rect x="518" y="436" width="164" height="18" rx="9" fill="#FFFFFF" fill-opacity="0.5"/>
  <path d="M544 676H656" stroke="#111111" stroke-opacity="0.4" stroke-width="16" stroke-linecap="round"/>
  <path d="M560 714H640" stroke="#111111" stroke-opacity="0.3" stroke-width="16" stroke-linecap="round"/>
  <rect x="330" y="214" width="540" height="86" rx="24" fill="#FFFFFF" fill-opacity="0.7"/>
  <text x="600" y="270" text-anchor="middle" font-family="Arial, Helvetica, sans-serif" font-size="42" font-weight="700" fill="#111111">Rasm mavjud emas</text>
  <defs>
    <linearGradient id="bg" x1="80" y1="80" x2="1120" y2="820" gradientUnits="userSpaceOnUse">
      <stop stop-color="#FAFAFA"/>
      <stop offset="1" stop-color="#ECECEC"/>
    </linearGradient>
  </defs>
</svg>